<svg xmlns="http://www.w3.org/2000/svg" version="1.1" xmlns:xlink="http://www.w3.org/1999/xlink" xmlns:svgjs="http://svgjs.com/svgjs" width="1920" height="1080" preserveAspectRatio="none" viewBox="0 0 1920 1080"><g mask="url(&quot;#SvgjsMask2429&quot;)" fill="none"><rect width="1920" height="1080" x="0" y="0" fill="url(#SvgjsLinearGradient2430)"></rect><path d="M840.02-38.99C597.05 71.02 573.63 827.09 239.4 842.74-94.83 858.39-194.48 558.71-361.22 551.14" stroke="rgba(51,121,194,0.58)" stroke-width="2"></path><path d="M1079.62-174.1C858.18-125.03 829.62 408.59 428.95 458.14 28.27 507.69-40.22 773.34-221.73 782.14" stroke="rgba(51,121,194,0.58)" stroke-width="2"></path><path d="M1325.61-36.25C1053.5 83.56 1028.3 921 647.83 940.98 267.36 960.96 153.38 665.66-29.95 660.18" stroke="rgba(51,121,194,0.58)" stroke-width="2"></path><path d="M1544.33-29.47C1276.85 13.66 1135.83 661.23 710.58 662.9 285.33 664.57 103.39 313.87-123.17 306.5" stroke="rgba(51,121,194,0.58)" stroke-width="2"></path><path d="M1322.33-120.98C1057.15-11.65 1029.93 787.04 649.94 808.7 269.96 830.36 154.1 595.33-22.44 592.7" stroke="rgba(51,121,194,0.58)" stroke-width="2"></path></g><defs><mask id="SvgjsMask2429"><rect width="1920" height="1080" fill="#ffffff"></rect></mask><linearGradient x1="10.94%" y1="-19.44%" x2="89.06%" y2="119.44%" gradientUnits="userSpaceOnUse" id="SvgjsLinearGradient2430"><stop stop-color="rgba(20, 74, 144, 1)" offset="0.2"></stop><stop stop-color="rgba(14, 42, 71, 1)" offset="1"></stop></linearGradient></defs></svg>